<?xml version="1.0" standalone="no"?>
<!DOCTYPE svg PUBLIC "-//W3C//DTD SVG 20010904//EN"
 "http://www.w3.org/TR/2001/REC-SVG-20010904/DTD/svg10.dtd">
<svg version="1.0" xmlns="http://www.w3.org/2000/svg"
 width="256.000000pt" height="256.000000pt" viewBox="0 0 256.000000 256.000000"
 preserveAspectRatio="xMidYMid meet">
<metadata>
Created by potrace 1.14, written by Peter Selinger 2001-2017
</metadata>
<g transform="translate(0.000000,256.000000) scale(0.100000,-0.100000)"
fill="#000000" stroke="none">
<path d="M1345 2334 c-49 -13 -65 -16 -153 -29 -160 -23 -281 -77 -379 -169
-35 -32 -61 -52 -59 -45 2 8 7 27 10 42 6 26 5 27 -14 17 -30 -16 -69 -80 -75
-125 -12 -83 -13 -85 -49 -85 -35 0 -86 -32 -86 -54 0 -8 11 -13 26 -13 49 0
51 -20 6 -61 -64 -59 -95 -138 -98 -244 -2 -94 23 -258 54 -347 l19 -55 -26
-22 c-39 -34 -39 -115 1 -246 6 -21 15 -38 19 -38 5 0 4 12 -2 27 -12 32 -5
65 17 87 23 24 31 20 36 -19 3 -28 1 -34 -10 -30 -12 4 -13 -1 -8 -27 20 -91
19 -106 -4 -113 -22 -7 -22 -7 10 -40 21 -22 41 -33 56 -32 21 2 29 -9 59 -78
38 -86 81 -153 130 -200 135 -132 232 -193 342 -216 35 -7 95 -9 149 -6 152 9
268 75 426 242 46 48 120 180 134 238 6 24 10 28 31 22 19 -4 32 2 59 29 19
19 34 40 33 47 0 9 -2 10 -5 3 -3 -7 -14 -10 -24 -7 -11 3 -18 8 -16 12 2 3 7
22 10 41 3 19 8 48 11 63 4 18 2 26 -5 22 -6 -4 -9 5 -7 24 5 41 10 45 32 21
19 -21 23 -55 12 -105 -5 -22 -5 -26 3 -14 13 22 39 123 46 180 7 55 -16 118
-46 126 -11 3 -17 9 -14 14 3 5 7 17 9 26 2 10 12 45 21 78 28 96 23 246 -11
380 -33 128 -47 159 -110 240 -26 33 -42 61 -36 63 19 6 12 20 -14 26 -25 6
-38 24 -115 154 -65 110 -165 199 -212 190 -7 -2 -24 -19 -38 -38 -28 -37 -75
-68 -86 -57 -4 4 1 26 10 50 28 74 23 77 -69 51z"/>
<path d="M551 804 c0 -11 3 -14 6 -6 3 7 2 16 -1 19 -3 4 -6 -2 -5 -13z"/>
</g>
</svg>
